<svg xmlns="http://www.w3.org/2000/svg" viewBox="0 0 24 30" x="0px" y="0px"><title>dashboard</title><g><path d="M22,3V9a1,1,0,0,1-1,1H14a1,1,0,0,1-1-1V3a1,1,0,0,1,1-1h7A1,1,0,0,1,22,3ZM10,14H3a1,1,0,0,0-1,1v6a1,1,0,0,0,1,1h7a1,1,0,0,0,1-1V15A1,1,0,0,0,10,14ZM10,2H3A1,1,0,0,0,2,3v8a1,1,0,0,0,1,1h7a1,1,0,0,0,1-1V3A1,1,0,0,0,10,2ZM21,12H14a1,1,0,0,0-1,1v8a1,1,0,0,0,1,1h7a1,1,0,0,0,1-1V13A1,1,0,0,0,21,12Z"/></g><text x="0" y="39" fill="#000000" font-size="5px" font-weight="bold" font-family="'Helvetica Neue', Helvetica, Arial-Unicode, Arial, Sans-serif">Created by J703</text><text x="0" y="44" fill="#000000" font-size="5px" font-weight="bold" font-family="'Helvetica Neue', Helvetica, Arial-Unicode, Arial, Sans-serif">from the Noun Project</text></svg>