<svg xmlns="http://www.w3.org/2000/svg" version="1.1" viewBox="-5.0 -10.0 110.0 135.0">
 <path d="m84 5h-68c-6.0664 0-11 4.9336-11 11v68c0 6.0664 4.9336 11 11 11h68c6.0664 0 11-4.9336 11-11v-68c0-6.0664-4.9336-11-11-11zm-25 6v20.5l-7.8477-3.2695c-0.36719-0.15234-0.76172-0.23047-1.1523-0.23047s-0.78516 0.078125-1.1523 0.23047l-7.8477 3.2695v-20.5zm30 73c0 2.7578-2.2422 5-5 5h-68c-2.7578 0-5-2.2422-5-5v-68c0-2.7578 2.2422-5 5-5h19v25c0 1.0039 0.5 1.9375 1.3359 2.4961 0.83594 0.55859 1.8906 0.65625 2.8164 0.27344l10.848-4.5195 10.848 4.5195c0.37109 0.15625 0.76172 0.23047 1.1523 0.23047 0.58203 0 1.1641-0.17188 1.6641-0.50391 0.83594-0.55469 1.3359-1.4922 1.3359-2.4961v-25h19c2.7578 0 5 2.2422 5 5zm-24-8c0 1.6562-1.3438 3-3 3h-24c-1.6562 0-3-1.3438-3-3s1.3438-3 3-3h24c1.6562 0 3 1.3438 3 3z"/>
<text x="0.0" y="117.5" font-size="5.0" font-weight="bold" font-family="Arbeit Regular, Helvetica, Arial-Unicode, Arial, Sans-serif" fill="#000000">Created by Mas Dhimas</text><text x="0.0" y="122.5" font-size="5.0" font-weight="bold" font-family="Arbeit Regular, Helvetica, Arial-Unicode, Arial, Sans-serif" fill="#000000">from Noun Project</text></svg>