<svg xmlns="http://www.w3.org/2000/svg" xmlns:xlink="http://www.w3.org/1999/xlink" version="1.1" x="0px" y="0px" viewBox="0 0 32 40" style="enable-background:new 0 0 32 32;" xml:space="preserve"><g><path d="M26,3H10C8.3457,3,7,4.3457,7,6v1H6c-1.6543,0-3,1.3457-3,3v16c0,1.6543,1.3457,3,3,3h16c1.6543,0,3-1.3457,3-3v-1h1   c1.6543,0,3-1.3457,3-3V6C29,4.3457,27.6543,3,26,3z M23,26c0,0.5513-0.4487,1-1,1H6c-0.5513,0-1-0.4487-1-1V10   c0-0.5513,0.4487-1,1-1h16c0.5513,0,1,0.4487,1,1V26z M27,22c0,0.5513-0.4487,1-1,1h-1V10c0-1.6543-1.3457-3-3-3H9V6   c0-0.5513,0.4487-1,1-1h16c0.5513,0,1,0.4487,1,1V22z"/><path d="M7.5,13h13c0.2761,0,0.5-0.2239,0.5-0.5v-1c0-0.2761-0.2239-0.5-0.5-0.5h-13C7.2239,11,7,11.2239,7,11.5v1   C7,12.7761,7.2239,13,7.5,13z"/><path d="M7.5,17h13c0.2761,0,0.5-0.2239,0.5-0.5v-1c0-0.2761-0.2239-0.5-0.5-0.5h-13C7.2239,15,7,15.2239,7,15.5v1   C7,16.7761,7.2239,17,7.5,17z"/><path d="M7.5,21h13c0.2761,0,0.5-0.2239,0.5-0.5v-1c0-0.2761-0.2239-0.5-0.5-0.5h-13C7.2239,19,7,19.2239,7,19.5v1   C7,20.7761,7.2239,21,7.5,21z"/><path d="M7.5,25h13c0.2761,0,0.5-0.2239,0.5-0.5v-1c0-0.2761-0.2239-0.5-0.5-0.5h-13C7.2239,23,7,23.2239,7,23.5v1   C7,24.7761,7.2239,25,7.5,25z"/></g><text x="0" y="47" fill="#000000" font-size="5px" font-weight="bold" font-family="'Helvetica Neue', Helvetica, Arial-Unicode, Arial, Sans-serif">Created by wahya</text><text x="0" y="52" fill="#000000" font-size="5px" font-weight="bold" font-family="'Helvetica Neue', Helvetica, Arial-Unicode, Arial, Sans-serif">from the Noun Project</text></svg>