<svg xmlns="http://www.w3.org/2000/svg" version="1.1" viewBox="-5.0 -10.0 110.0 135.0">
 <path d="m83.129 31.371c0 3.4766-2.8281 6.3047-6.3047 6.3047h-1.8906v3.4414c0 0.89844-0.72656 1.625-1.625 1.625-0.89844 0-1.625-0.72656-1.625-1.625v-3.4414l-5.5859 0.003907c-0.89844 0-1.625-0.72656-1.625-1.625 0-0.89844 0.72656-1.625 1.625-1.625h10.73c1.6836 0 3.0586-1.3711 3.0586-3.0586s-1.3711-3.0586-3.0586-3.0586h-7.0273c-3.4766 0-6.3047-2.8281-6.3047-6.3047 0-3.4766 2.8281-6.3086 6.3047-6.3086h1.8906v-3.4414c0-0.89844 0.72656-1.625 1.625-1.625 0.89844 0 1.625 0.72656 1.625 1.625v3.4414h5.5898c0.89844 0 1.625 0.73047 1.625 1.625 0 0.89844-0.72656 1.625-1.625 1.625h-10.734c-1.6836 0-3.0586 1.3711-3.0586 3.0586 0 1.6836 1.3711 3.0586 3.0586 3.0586h7.0273c3.4766 0 6.3047 2.8281 6.3047 6.3047zm-9.8164 16.059c11.438 0 20.742-9.3047 20.742-20.742s-9.3047-20.742-20.742-20.742-20.742 9.3047-20.742 20.742 9.3047 20.742 20.742 20.742zm23.988-20.742c0-13.227-10.762-23.988-23.988-23.988-13.574 0-24.484 11.344-23.973 24.816h-23.941c-2.0742 0-3.9258 0.66406-5.3906 1.9336l-1.793-11.598c-0.125-0.79297-0.80469-1.375-1.6055-1.375h-12.285c-0.89844 0-1.625 0.73047-1.625 1.625 0 0.89844 0.72656 1.625 1.625 1.625h10.895l7.4258 47.992c0.30469 1.9805 1.543 3.9141 3.2344 5.0586-4.4219 4.543-1.9258 12.062 4.1797 13.168-3.3047 4.7578 0.10547 11.352 5.9453 11.352 5.7812 0 9.1953-6.4609 6.0352-11.223h24.812c-3.1602 4.7578 0.25 11.223 6.0352 11.223 3.9922 0 7.2383-3.2461 7.2383-7.2383 0-3.9883-3.2461-7.2344-7.2383-7.2344l-41.438 0.003906c-2.5195 0-4.5703-2.0508-4.5703-4.5703 0-2.1055 1.4688-3.9766 3.4922-4.4531 0.13281-0.023438 0.26562-0.050782 0.40234-0.082032l45.668-11.191c2.8672-0.70312 6.75-2.0898 7.3555-6l1.3945-9.0039c7.2266-4.1367 12.109-11.93 12.109-20.84z" fill-rule="evenodd"/>
<text x="0.0" y="117.5" font-size="5.0" font-weight="bold" font-family="Arbeit Regular, Helvetica, Arial-Unicode, Arial, Sans-serif" fill="#000000">Created by miftakhudin</text><text x="0.0" y="122.5" font-size="5.0" font-weight="bold" font-family="Arbeit Regular, Helvetica, Arial-Unicode, Arial, Sans-serif" fill="#000000">from Noun Project</text></svg>