<svg xmlns="http://www.w3.org/2000/svg" version="1.1" viewBox="-5.0 -10.0 110.0 135.0">
 <path d="m55.527 89.246c2.7266 2.7266 6.4961 4.4141 10.66 4.4141s7.9336-1.6875 10.66-4.4141c2.2812-2.2812 3.8359-5.2969 4.2812-8.6602h-14.941c-1.1055 0-2-0.89453-2-2v-14.941c-3.3633 0.44531-6.375 2-8.6602 4.2812-2.7266 2.7266-4.4141 6.4961-4.4141 10.66 0 4.0234 1.5469 7.7227 4.4141 10.66zm1.2812-37.371c0 1.1055-0.89453 2-2 2-1.1055 0-2-0.89453-2-2v-3.5703l-10.059 10.059c-0.78125 0.78125-2.0469 0.78125-2.8281 0l-4.1758-4.1758-11.461 11.461c-0.78125 0.78125-2.0469 0.78125-2.8281 0s-0.78125-2.0469 0-2.8281l12.875-12.875c0.78125-0.78125 2.0469-0.78125 2.8281 0l4.1758 4.1758 8.6445-8.6445h-3.5703c-1.1055 0-2-0.89453-2-2 0-1.1055 0.89453-2 2-2h8.3984c1.1055 0 2 0.89453 2 2zm11.379 2.4766c0.92969 0.074219 1.8438 0.20313 2.7422 0.38281v-35.152c0-1.2383-0.50391-2.3633-1.3164-3.1758-0.82031-0.8125-1.9414-1.3164-3.1758-1.3164h-12.473l13.633 13.633c0.39062 0.39062 0.58594 0.90234 0.58594 1.4141v24.219zm6.7461 1.543c3.1953 1.2344 6.0664 3.1211 8.4453 5.5 4.3984 4.3984 7.125 10.48 7.125 17.195 0 1.1055-0.89453 2-2 2h-3.3438c-0.46484 4.4688-2.4766 8.4766-5.4844 11.484-3.4531 3.4531-8.2227 5.5859-13.488 5.5859-5.1562 0-9.8359-2.0469-13.27-5.375h-28.18c-2.3281 0-4.4492-0.95312-5.9922-2.4922l-0.011719-0.011719c-1.5391-1.543-2.4961-3.6641-2.4961-5.9922v-0.43359c-1.6328-0.34766-3.0977-1.168-4.2422-2.3125l-0.011719-0.011719c-1.5352-1.543-2.4922-3.6602-2.4922-5.9883v-64.211c0-2.332 0.95703-4.4531 2.4961-5.9961l0.011719-0.011719c1.543-1.5391 3.6641-2.4922 5.9922-2.4922h22.406c0.57422 0 1.0938 0.24219 1.457 0.62891l8.1133 8.1133h16.473c2.3359 0 4.4609 0.95703 6 2.4961 1.5391 1.5469 2.4922 3.668 2.4922 6zm-10.75 3.7227v-27.48h-17.297c-2.3281 0-4.4531-0.95703-5.9961-2.5-1.543-1.5352-2.4961-3.6602-2.4961-5.9961v-17.297h-20.402c-1.2383 0-2.3633 0.50391-3.1719 1.3125-0.81641 0.81641-1.3203 1.9414-1.3203 3.1797v64.211c0 1.2383 0.50391 2.3633 1.3125 3.1719 0.81641 0.81641 1.9414 1.3203 3.1797 1.3203h29.145c-0.015625-0.31641-0.023438-0.63281-0.023438-0.95312 0-5.2656 2.1367-10.035 5.5859-13.484 3.0078-3.0078 7.0195-5.0195 11.484-5.4844zm16.367 4.6055c-3.3359-3.3359-7.6914-5.3945-12.363-5.8516v18.215h18.219c-0.46875-4.8125-2.6172-9.1328-5.8516-12.363zm-32.789 19.32h-27.52v0.25c0 1.2383 0.50391 2.3633 1.3125 3.1719 0.81641 0.81641 1.9414 1.3203 3.1797 1.3203h25.023c-0.86719-1.4688-1.543-3.0586-1.9961-4.7461zm13.598-55.41-13.562-13.566-0.035156-0.03125-0.066407-0.066406-0.03125-0.035156-5.2617-5.2617v14.469c0 1.2344 0.50781 2.3594 1.3203 3.1719 0.80859 0.81641 1.9336 1.3203 3.1719 1.3203h14.473z"/>
<text x="0.0" y="117.5" font-size="5.0" font-weight="bold" font-family="Arbeit Regular, Helvetica, Arial-Unicode, Arial, Sans-serif" fill="#000000">Created by White Snow</text><text x="0.0" y="122.5" font-size="5.0" font-weight="bold" font-family="Arbeit Regular, Helvetica, Arial-Unicode, Arial, Sans-serif" fill="#000000">from Noun Project</text></svg>