<svg xmlns="http://www.w3.org/2000/svg" version="1.1" viewBox="-5.0 -10.0 110.0 135.0">
 <path d="m50.012 5.2617c-17.492 0-31.664 14.168-31.664 31.664v0.42578h-0.77734c-5.4414 0-9.8672 4.5234-9.8672 9.9844v12.238c0 5.4648 4.4258 10.008 9.8672 10.008h10.645v0.003907c1.4492-0.003907 2.6211-1.1797 2.625-2.6289v-26.977c-0.003906-1.4492-1.1758-2.625-2.625-2.625h-4.6016v-0.42578c0-14.676 11.73-26.398 26.398-26.398s26.398 11.723 26.398 26.398v0.42578h-4.6016c-0.69922-0.003907-1.3711 0.27344-1.8672 0.76562-0.49609 0.49219-0.77344 1.1602-0.77734 1.8594v26.977c0.003907 0.69922 0.28125 1.3711 0.77734 1.8633 0.49609 0.49219 1.168 0.76563 1.8672 0.76563h4.6016v0.67969c0 6.1719-4.957 11.113-11.129 11.113h-4.8789c-1.1875-4.6289-5.4141-8.0859-10.391-8.0859-5.8906 0-10.723 4.8359-10.723 10.727s4.832 10.723 10.723 10.723c4.9844 0 9.2109-3.4648 10.391-8.1016h4.8789c9.0156 0 16.375-7.3594 16.375-16.375v-0.67969h0.79688c5.4414 0 9.8477-4.543 9.8477-10.008v-12.238c0-5.4648-4.4062-9.9844-9.8477-9.9844h-0.79688v-0.42578c0-17.496-14.152-31.664-31.645-31.664zm-32.441 37.359h8.0039v21.695h-8.0039c-2.5586 0-4.6055-2.043-4.6055-4.7383v-12.238c0-2.6953 2.043-4.7188 4.6055-4.7188zm56.859 0h8.0234c2.5586 0 4.5859 2.0234 4.5859 4.7188v12.238c0 2.6953-2.0273 4.7383-4.5859 4.7383h-8.0234zm-24.418 35.938c3.043 0 5.457 2.4102 5.457 5.457s-2.4141 5.457-5.457 5.457-5.457-2.4102-5.457-5.457 2.4141-5.457 5.457-5.457z"/>
<text x="0.0" y="117.5" font-size="5.0" font-weight="bold" font-family="Arbeit Regular, Helvetica, Arial-Unicode, Arial, Sans-serif" fill="#000000">Created by Alzam</text><text x="0.0" y="122.5" font-size="5.0" font-weight="bold" font-family="Arbeit Regular, Helvetica, Arial-Unicode, Arial, Sans-serif" fill="#000000">from Noun Project</text></svg>